<?xml version="1.0" standalone="no"?>
<!DOCTYPE svg PUBLIC "-//W3C//DTD SVG 20010904//EN"
 "http://www.w3.org/TR/2001/REC-SVG-20010904/DTD/svg10.dtd">
<svg version="1.0" xmlns="http://www.w3.org/2000/svg"
 width="481.000000pt" height="332.000000pt" viewBox="0 0 481.000000 332.000000"
 preserveAspectRatio="xMidYMid meet">
<metadata>
Created by potrace 1.15, written by Peter Selinger 2001-2017
</metadata>
<g transform="translate(0.000000,332.000000) scale(0.100000,-0.100000)"
fill="#000000" stroke="none">
<path d="M1100 2664 c-14 -2 -52 -9 -85 -15 -33 -5 -71 -14 -85 -18 -14 -5
-54 -16 -90 -26 -251 -66 -581 -248 -676 -373 -44 -57 -52 -87 -30 -111 15
-16 22 -17 52 -8 33 10 44 29 24 42 -20 12 -9 34 43 87 103 106 318 234 477
282 30 10 66 23 80 31 75 40 354 68 451 45 149 -36 200 -132 153 -291 -28 -93
-127 -224 -234 -310 -76 -61 -481 -325 -540 -352 -8 -4 -28 -15 -45 -25 -156
-95 -258 -130 -293 -100 -9 8 -26 18 -36 22 -18 6 -19 16 -12 221 7 194 6 216
-9 221 -9 4 -22 1 -28 -5 -16 -15 -34 -272 -46 -651 -15 -454 -1 -724 44 -810
18 -34 88 -85 104 -75 17 10 13 22 -18 57 -32 38 -43 67 -66 193 -15 78 -17
129 -11 375 3 157 9 305 13 330 l8 45 70 -3 c75 -4 98 3 215 63 180 91 324
182 560 354 185 135 290 240 350 352 l45 84 0 107 c0 104 -1 107 -31 145 -37
46 -96 88 -144 102 -41 12 -173 21 -210 15z"/>
<path d="M2506 2618 c-8 -26 -26 -247 -26 -314 0 -38 -5 -103 -10 -144 -11
-77 -23 -283 -40 -655 -14 -310 -39 -482 -55 -379 -28 185 -67 260 -153 294
-156 62 -442 -193 -511 -455 -14 -53 -14 -173 0 -216 34 -100 174 -179 319
-179 54 0 175 24 275 54 28 8 77 22 109 31 90 24 152 53 139 66 -7 7 -46 4
-129 -10 -254 -45 -363 -55 -439 -42 -84 14 -145 48 -175 97 -20 31 -22 45
-17 112 3 55 12 92 31 129 14 29 26 56 26 59 0 17 108 150 158 194 97 87 177
111 227 68 32 -29 65 -122 65 -185 1 -76 25 -307 33 -321 10 -16 42 -16 54 1
15 18 31 93 38 172 7 91 22 216 40 335 26 170 47 397 65 680 5 85 14 207 20
270 14 160 13 323 -2 338 -16 16 -38 15 -42 0z"/>
<path d="M3675 1624 c-27 -7 -93 -24 -145 -37 -132 -34 -264 -94 -361 -163
-90 -65 -236 -214 -245 -251 -4 -13 -14 -23 -24 -23 -18 0 -30 26 -30 66 0 12
-8 32 -18 44 -18 22 -18 22 -42 2 -23 -19 -24 -21 -12 -88 6 -38 16 -87 21
-109 5 -22 18 -85 30 -140 12 -55 28 -116 35 -135 8 -19 22 -62 31 -95 39
-140 53 -165 86 -165 34 0 42 35 23 98 -42 145 -46 171 -47 292 -1 118 1 128
28 184 33 70 127 168 235 246 41 30 84 60 95 66 65 36 174 88 265 128 135 59
153 68 158 84 5 15 -17 14 -83 -4z"/>
<path d="M4100 1490 c-101 -18 -241 -87 -296 -147 -96 -104 -147 -278 -125
-423 26 -166 100 -226 267 -219 62 3 86 9 109 26 29 21 87 44 150 57 53 12
211 115 267 174 67 70 84 95 108 163 24 65 25 93 5 150 -31 87 -92 144 -204
189 -77 32 -200 45 -281 30z m226 -106 c63 -20 89 -35 127 -72 45 -44 47 -49
47 -102 0 -50 -5 -64 -41 -116 -49 -71 -80 -100 -179 -166 -108 -73 -200 -109
-200 -78 0 6 -9 19 -20 30 -16 16 -25 18 -40 10 -16 -9 -18 -14 -8 -29 19 -31
3 -51 -42 -51 -40 0 -112 29 -125 50 -4 6 -15 8 -25 5 -53 -17 -61 180 -12
300 44 108 118 176 236 216 106 36 179 37 282 3z"/>
<path d="M1265 1423 c-124 -31 -293 -170 -386 -318 -92 -146 -112 -207 -108
-325 l4 -92 47 -42 c97 -86 235 -90 438 -13 114 43 242 106 235 117 -9 14 -32
13 -85 -5 -74 -24 -209 -56 -305 -72 -105 -18 -177 -7 -224 33 -33 27 -46 81
-33 129 8 28 12 30 71 37 42 5 86 19 134 44 95 48 126 72 227 174 123 125 173
228 139 292 -19 36 -93 56 -154 41z m79 -69 c77 -30 -142 -273 -331 -369 -74
-38 -113 -44 -113 -20 0 51 110 196 220 290 36 30 175 105 196 105 7 0 19 -3
28 -6z"/>
</g>
</svg>
