<svg id="Capa_1" enable-background="new 0 0 508 508" height="512" viewBox="0 0 508 508" width="512" xmlns="http://www.w3.org/2000/svg"><g><path d="m478 64h-448c-11.046 0-20 8.954-20 20v360h488v-360c0-11.046-8.954-20-20-20z" fill="#fff"/><path d="m10 144v-60c0-11.046 8.954-20 20-20h448c11.046 0 20 8.954 20 20v60z" fill="#80b6ff"/><circle cx="254" cy="294" fill="#ffee80" r="81"/><path d="m264 444c0 5.51-4.49 10-10 10s-10-4.49-10-10 4.49-10 10-10 10 4.49 10 10zm-155-82v-30h-58.124c-7.779 0-12.297-8.402-8.756-14.831 7.585-13.77 46.089-83.315 53.741-92.703 5.946-7.295 13.854-10.101 21.159-7.5 7.166 2.55 11.98 9.987 11.98 18.506v76.528h7.372c5.523 0 10 4.477 10 10s-4.477 10-10 10h-7.372v30c0 5.523-4.477 10-10 10s-10-4.477-10-10zm0-50v-71.485c-7.311 11.333-26.12 44.499-41.147 71.485zm322.119 50v-30h-58.125c-7.779 0-12.297-8.402-8.756-14.831 7.585-13.77 46.089-83.315 53.741-92.703 5.946-7.295 13.854-10.101 21.159-7.5 7.166 2.55 11.98 9.987 11.98 18.506v76.528h7.372c5.523 0 10 4.477 10 10s-4.477 10-10 10h-7.372v30c0 5.523-4.477 10-10 10s-9.999-4.477-9.999-10zm0-50v-71.485c-7.311 11.333-26.12 44.499-41.147 71.485zm-177.119 73c-50.178 0-91-40.822-91-91s40.822-91 91-91 91 40.822 91 91-40.822 91-91 91zm0-20c39.149 0 71-31.851 71-71s-31.851-71-71-71-71 31.851-71 71 31.851 71 71 71zm20.553-28.371c1.128.411 2.282.605 3.417.605 4.086 0 7.921-2.523 9.398-6.585 1.888-5.19-.789-10.928-5.979-12.815-17.661-6.425-37.116-6.425-54.777 0-5.19 1.888-7.868 7.625-5.979 12.815 1.887 5.19 7.624 7.868 12.815 5.979 13.253-4.819 27.851-4.819 41.105.001zm-35.46-51.755c3.251-4.464 2.25-10.723-2.22-13.967l-10.939-7.939c-4.47-3.244-10.723-2.251-13.967 2.22-3.244 4.47-2.25 10.723 2.22 13.967l10.939 7.939c4.551 3.293 10.809 2.116 13.967-2.22zm-179.093-180.874c0 5.523-4.477 10-10 10s-10-4.477-10-10 4.477-10 10-10 10 4.477 10 10zm45 0c0 5.523-4.477 10-10 10s-10-4.477-10-10 4.477-10 10-10 10 4.477 10 10zm45 0c0 5.523-4.477 10-10 10s-10-4.477-10-10 4.477-10 10-10 10 4.477 10 10zm132.885 183.093 10.939-7.939c4.47-3.244 5.463-9.497 2.22-13.967-3.244-4.471-9.497-5.464-13.967-2.22l-10.939 7.939c-4.47 3.244-5.471 9.503-2.22 13.967 3.158 4.337 9.416 5.514 13.967 2.22zm-272.885 166.907c-5.523 0-10-4.477-10-10v-360c0-16.569 13.431-30 30-30h448c16.569 0 30 13.431 30 30v360c0 5.523-4.477 10-10 10h-199c-5.74 0-10.373-4.872-9.976-10.694.361-5.306 5.016-9.306 10.334-9.306h188.642v-280h-468v280h188.642c5.318 0 9.973 4 10.335 9.306.396 5.822-4.238 10.694-9.977 10.694zm10-320h468v-50c0-5.514-4.486-10-10-10h-448c-5.514 0-10 4.486-10 10z"/></g></svg>